<svg xmlns="http://www.w3.org/2000/svg" viewBox="0 0 128 128" fill="none" role="img" aria-label="MediDiario icon">
  <defs>
    <linearGradient id="bg" x1="16" y1="8" x2="112" y2="120" gradientUnits="userSpaceOnUse">
      <stop offset="0" stop-color="#60a5fa" />
      <stop offset="1" stop-color="#2563eb" />
    </linearGradient>
  </defs>
  <rect width="128" height="128" rx="28" fill="url(#bg)" />
  <path
    fill="#fff"
    d="M62 22h4c5.523 0 10 4.477 10 10v18h18c5.523 0 10 4.477 10 10v4c0 5.523-4.477 10-10 10H76v18c0 5.523-4.477 10-10 10h-4c-5.523 0-10-4.477-10-10V74H34c-5.523 0-10-4.477-10-10v-4c0-5.523 4.477-10 10-10h18V32c0-5.523 4.477-10 10-10Z"
  />
  <circle cx="92" cy="40" r="12" fill="#e2efff" />
  <circle cx="36" cy="92" r="10" fill="#dbeafe" />
</svg>
